<?xml version="1.0" encoding="UTF-8" standalone="no"?>
<!-- Created with Inkscape (http://www.inkscape.org/) -->

<svg
   xmlns:dc="http://purl.org/dc/elements/1.1/"
   xmlns:cc="http://creativecommons.org/ns#"
   xmlns:rdf="http://www.w3.org/1999/02/22-rdf-syntax-ns#"
   xmlns:svg="http://www.w3.org/2000/svg"
   xmlns="http://www.w3.org/2000/svg"
   xmlns:sodipodi="http://sodipodi.sourceforge.net/DTD/sodipodi-0.dtd"
   xmlns:inkscape="http://www.inkscape.org/namespaces/inkscape"
   width="16px"
   height="16px"
   viewBox="0 0 16 16"
   version="1.1"
   id="SVGRoot"
   inkscape:version="0.92+devel unknown"
   sodipodi:docname="symbol.svg">
  <sodipodi:namedview
     id="base"
     pagecolor="#ffffff"
     bordercolor="#666666"
     borderopacity="1.0"
     inkscape:pageopacity="0.0"
     inkscape:pageshadow="2"
     inkscape:zoom="22.627417"
     inkscape:cx="7.2804646"
     inkscape:cy="8.6418015"
     inkscape:document-units="px"
     inkscape:current-layer="layer1"
     inkscape:document-rotation="0"
     showgrid="false"
     inkscape:window-width="1366"
     inkscape:window-height="704"
     inkscape:window-x="0"
     inkscape:window-y="0"
     inkscape:window-maximized="1"
     inkscape:grid-bbox="true" />
  <defs
     id="defs114" />
  <metadata
     id="metadata117">
    <rdf:RDF>
      <cc:Work
         rdf:about="">
        <dc:format>image/svg+xml</dc:format>
        <dc:type
           rdf:resource="http://purl.org/dc/dcmitype/StillImage" />
        <dc:title />
      </cc:Work>
    </rdf:RDF>
  </metadata>
  <g
     id="layer1"
     inkscape:groupmode="layer"
     inkscape:label="Layer 1">
    <path
       style="fill:#ffffff;fill-opacity:1;stroke:#000000;stroke-width:0"
       d="m 1.1347793,14.744993 c 0,-0.338956 0.014124,-0.381323 0.1271079,-0.381323 0.084735,0 0.1271078,-0.04237 0.1271078,-0.127108 0,-0.12499 0.042373,-0.127108 2.5421579,-0.127108 2.4997882,0 2.5421578,-0.0021 2.5421578,-0.127108 0,-0.08474 0.042373,-0.127108 0.1271079,-0.127108 0.084735,0 0.1271079,-0.04237 0.1271079,-0.127108 0,-0.08474 0.042373,-0.127108 0.1271079,-0.127108 0.1059236,0 0.1271079,-0.04237 0.1271079,-0.254216 V 13.092591 H 3.9311529 c -3.00821984,0 -3.05058944,-0.0017 -3.05058944,-0.127108 0,-0.08474 -0.0423727,-0.127108 -0.12710791,-0.127108 -0.0847352,0 -0.1271079,-0.04237 -0.1271079,-0.127108 0,-0.08474 -0.0423727,-0.127108 -0.12710789,-0.127108 -0.12614492,0 -0.12710789,-0.04237 -0.12710789,-5.5927476 0,-5.550378 9.6297e-4,-5.5927473 0.12710789,-5.5927473 0.0847352,0 0.12710789,-0.04237 0.12710789,-0.1271079 0,-0.084738 0.0423727,-0.1271079 0.1271079,-0.1271079 0.0847352,0 0.12710791,-0.04237 0.12710791,-0.1271079 0,-0.12635125 0.042373,-0.1271079 7.11804204,-0.1271079 7.0756725,0 7.1180425,7.5665e-4 7.1180425,0.1271079 0,0.084738 0.04237,0.1271079 0.127107,0.1271079 0.08474,0 0.127108,0.04237 0.127108,0.1271079 0,0.084738 0.04237,0.1271079 0.127108,0.1271079 0.126145,0 0.127108,0.04237 0.127108,5.5927473 0,5.5503766 -9.66e-4,5.5927476 -0.127108,5.5927476 -0.08474,0 -0.127108,0.04237 -0.127108,0.127108 0,0.08474 -0.04237,0.127108 -0.127108,0.127108 -0.08474,0 -0.127107,0.04237 -0.127107,0.127108 0,0.12534 -0.04237,0.127108 -3.05059,0.127108 H 9.0154686 v 0.254215 c 0,0.211846 0.021181,0.254216 0.1271079,0.254216 0.084735,0 0.1271079,0.04237 0.1271079,0.127108 0,0.08474 0.042373,0.127108 0.1271079,0.127108 0.084735,0 0.1271079,0.04237 0.1271079,0.127108 0,0.124989 0.042373,0.127108 2.5421578,0.127108 2.499788,0 2.542158,0.0021 2.542158,0.127108 0,0.08474 0.04237,0.127108 0.127108,0.127108 0.112985,0 0.127108,0.04237 0.127108,0.381323 v 0.381324 H 7.9986055 1.1347793 Z M 14.862432,12.457051 c 0,-0.08474 0.04237,-0.127108 0.127108,-0.127108 0.126099,0 0.127108,-0.04237 0.127108,-5.3385316 0,-5.2961622 -10e-4,-5.3385315 -0.127108,-5.3385315 -0.08474,0 -0.127108,-0.04237 -0.127108,-0.1271079 0,-0.1263233 -0.04237,-0.1271079 -6.8638265,-0.1271079 -6.8214566,0 -6.8638262,7.846e-4 -6.8638262,0.1271079 0,0.084738 -0.042373,0.1271079 -0.1271079,0.1271079 -0.12609924,0 -0.12710794,0.04237 -0.12710794,5.3385315 0,5.2961616 0.00101,5.3385316 0.12710794,5.3385316 0.084735,0 0.1271079,0.04237 0.1271079,0.127108 0,0.126323 0.042373,0.127108 6.8638262,0.127108 6.8214565,0 6.8638265,-7.82e-4 6.8638265,-0.127108 z"
       id="path24"
       inkscape:connector-curvature="0" />
    <g
       id="g55"
       transform="matrix(1.1017558,0,0,1.1017558,-0.60211299,-0.30513735)">
      <path
         inkscape:connector-curvature="0"
         id="path26"
         d="m 9.000887,6.682031 v -2.625 h 2.375 2.375 v 2.625 2.625 h -0.25 -0.25 v -0.25 -0.25 h -1.875 -1.875 v 0.25 0.25 h -0.25 -0.25 z m 4.25,0.375 v -1.25 h -0.125 -0.125 v 0.5 0.5 h -0.125 -0.125 v 0.375 0.375 h -0.125 -0.125 v 0.25 0.25 h -0.375 -0.375 v -0.375 -0.375 h -0.125 -0.125 v -0.5 -0.5 h -0.125 -0.125 v 0.5 0.5 h -0.125 -0.125 v 0.375 0.375 h -0.375 -0.375 v -0.25 -0.25 h -0.125 -0.125 v -0.375 -0.375 h -0.125 -0.125 v -0.5 -0.5 h -0.125 -0.125 v 1.25 1.25 h 1.875 1.875 z m -2.5,-0.125 v -0.625 h 0.125 0.125 v -0.5 -0.5 h 0.375 0.375 v 0.5 0.5 h 0.125 0.125 v 0.625 0.625 h 0.125 0.125 v -0.375 -0.375 h 0.125 0.125 v -0.5 -0.5 h 0.125 0.125 v -0.25 -0.25 h 0.25 0.25 v -0.375 -0.375 h -1.875 -1.875 v 0.375 0.375 h 0.25 0.25 v 0.25 0.25 h 0.125 0.125 v 0.5 0.5 h 0.125 0.125 v 0.375 0.375 h 0.125 0.125 z"
         style="fill:#ffffff;fill-opacity:1;stroke:#000000;stroke-width:0" />
      <path
         inkscape:connector-curvature="0"
         id="path28"
         d="m 2.250887,7.682031 v -1.875 h 0.75 0.75 v -0.25 -0.25 h 0.25 0.25 v 0.25 0.25 h 1.375 1.375 v 1.875 1.875 h -0.25 -0.25 v -0.25 -0.25 h -1.875 -1.875 v 0.25 0.25 h -0.25 -0.25 z m 1,0.625 v -0.25 h 0.375 0.375 v -0.125 -0.125 h 0.125 0.125 v -0.125 -0.125 h -0.25 -0.25 v 0.125 0.125 h -0.375 -0.375 v -0.125 -0.125 h 0.125 0.125 v -0.125 -0.125 h -0.125 -0.125 v -0.125 -0.125 h 0.125 0.125 v -0.125 -0.125 h 0.375 0.375 v -0.125 -0.125 h 0.125 0.125 v -0.125 -0.125 h -0.75 -0.75 v 1.125 1.125 h 0.25 0.25 z m 2.25,0.125 v -0.125 h -0.125 -0.125 v -0.125 -0.125 h -0.25 -0.25 v 0.125 0.125 h -0.375 -0.375 v 0.125 0.125 h 0.75 0.75 z m 1,-1 v -1.125 h -1 -1 v 0.125 0.125 h 0.75 0.75 v 0.25 0.25 h -0.125 -0.125 v 0.25 0.25 h -0.125 -0.125 v 0.25 0.25 h 0.25 0.25 v 0.25 0.25 h 0.25 0.25 z m -1.5,0 v -0.125 h 0.125 0.125 v -0.125 -0.125 h -0.5 -0.5 v 0.125 0.125 h 0.25 0.25 v 0.125 0.125 h 0.125 0.125 z"
         style="fill:#ffffff;fill-opacity:1;stroke:#000000;stroke-width:0" />
      <path
         inkscape:connector-curvature="0"
         id="path30"
         d="m 2.500887,5.432031 v -0.125 h -0.125 -0.125 v -0.125 -0.125 h -0.25 -0.25 v -0.625 -0.625 h 1.25 1.25 v -0.25 -0.25 h 0.375 0.375 v 0.25 0.25 h 1.25 1.25 v 0.625 0.625 h -0.25 -0.25 v -0.375 -0.375 h -0.75 -0.75 v 0.375 0.375 h 0.375 0.375 v -0.25 -0.25 h 0.25 0.25 v 0.375 0.375 h -0.125 -0.125 v 0.125 0.125 h -0.625 -0.625 v -0.125 -0.125 h -0.125 -0.125 v -0.5 -0.5 h -0.5 -0.5 v 0.25 0.25 h -0.125 -0.125 v 0.125 0.125 h -0.125 -0.125 v 0.125 0.125 h -0.125 -0.125 v 0.125 0.125 h -0.375 -0.375 z m 0.5,-0.5 v -0.125 h 0.125 0.125 v -0.125 -0.125 h 0.125 0.125 v -0.125 -0.125 h -0.625 -0.625 v 0.375 0.375 h 0.375 0.375 z"
         style="fill:#ffffff;fill-opacity:1;stroke:#000000;stroke-width:0" />
    </g>
  </g>
</svg>
